<svg width="100" height="100" fill="none" xmlns="http://www.w3.org/2000/svg"><path d="M50 1.563C23.242 1.563 1.562 23.242 1.562 50S23.242 98.438 50 98.438c26.758 0 48.438-21.68 48.438-48.438 0-26.758-21.68-48.438-48.438-48.438zm0 87.5c-21.582 0-39.063-17.481-39.063-39.063S28.419 10.937 50 10.937 89.063 28.419 89.063 50 71.582 89.063 50 89.063zm12.07-20.391l-16.582-12.05a2.359 2.359 0 01-.957-1.895v-32.07a2.35 2.35 0 012.344-2.345h6.25a2.35 2.35 0 012.344 2.344v27.676l13.047 9.492c1.054.762 1.27 2.227.507 3.282l-3.671 5.058a2.36 2.36 0 01-3.282.508z" fill="#074078"/></svg>