<svg width="100" height="100" fill="none" xmlns="http://www.w3.org/2000/svg"><g clip-path="url(#clip0)"><path d="M97.88 77.285l-22.87-22.87c-4.512-4.513-11.25-5.392-16.68-2.716L37.51 30.88V18.75L12.51 0 .01 12.5l18.75 25h12.129l20.82 20.82c-2.656 5.43-1.797 12.168 2.715 16.68l22.87 22.871c2.853 2.852 7.462 2.852 10.294 0L97.88 87.578c2.832-2.851 2.832-7.46 0-10.293zm-33.085-33.34A20.551 20.551 0 0179.424 50l3.789 3.79c3.086-1.349 6.016-3.224 8.555-5.763 7.246-7.246 9.707-17.441 7.402-26.699-.43-1.758-2.637-2.363-3.926-1.074L80.713 34.785 67.45 32.578l-2.207-13.262 14.531-14.53c1.29-1.29.664-3.497-1.113-3.946-9.258-2.285-19.453.176-26.68 7.402-5.566 5.567-8.183 12.91-8.047 20.235L59.97 44.512a21.276 21.276 0 014.824-.567zM44.502 59.961L33.428 48.887 3.662 78.672c-4.883 4.883-4.883 12.793 0 17.676 4.883 4.882 12.793 4.882 17.676 0l24.14-24.141c-1.484-3.887-1.933-8.125-.976-12.246zM12.51 92.188A4.701 4.701 0 017.822 87.5a4.676 4.676 0 014.688-4.688 4.676 4.676 0 014.687 4.688 4.689 4.689 0 01-4.687 4.688z" fill="orange"/></g><defs><clipPath id="clip0"><path fill="#fff" d="M0 0h100v100H0z"/></clipPath></defs></svg>