<svg width="115" height="100" fill="none" xmlns="http://www.w3.org/2000/svg"><path d="M17.25 43.75c6.343 0 11.5-5.605 11.5-12.5s-5.157-12.5-11.5-12.5-11.5 5.605-11.5 12.5 5.157 12.5 11.5 12.5zm80.5 0c6.343 0 11.5-5.605 11.5-12.5s-5.157-12.5-11.5-12.5-11.5 5.605-11.5 12.5 5.157 12.5 11.5 12.5zM103.5 50H92c-3.162 0-6.02 1.387-8.104 3.633 7.242 4.316 12.38 12.11 13.495 21.367h11.859c3.18 0 5.75-2.793 5.75-6.25V62.5c0-6.895-5.157-12.5-11.5-12.5zm-46 0c11.123 0 20.125-9.785 20.125-21.875S68.623 6.25 57.5 6.25s-20.125 9.785-20.125 21.875S46.377 50 57.5 50zm13.8 6.25h-1.491c-3.738 1.953-7.889 3.125-12.309 3.125-4.42 0-8.553-1.172-12.309-3.125H43.7c-11.428 0-20.7 10.078-20.7 22.5v5.625c0 5.176 3.863 9.375 8.625 9.375h51.75c4.762 0 8.625-4.2 8.625-9.375V78.75c0-12.422-9.272-22.5-20.7-22.5zm-40.196-2.617C29.02 51.387 26.163 50 23 50H11.5C5.157 50 0 55.605 0 62.5v6.25C0 72.207 2.57 75 5.75 75h11.841c1.132-9.258 6.271-17.05 13.513-21.367z" fill="#074078"/></svg>