<svg width="76" height="102" fill="none" xmlns="http://www.w3.org/2000/svg"><path d="M47.373 63.75C64.22 63.75 76 51.905 76 34.877 76 17.85 64.22 6.375 47.373 6.375H15.042a2.383 2.383 0 00-2.375 2.39v41.166H2.375A2.383 2.383 0 000 52.32v9.038a2.383 2.383 0 002.375 2.391h10.292v6.375H2.375A2.383 2.383 0 000 72.515v7.97c0 1.32 1.063 2.39 2.375 2.39h10.292v10.36c0 1.32 1.063 2.39 2.375 2.39h11.59a2.383 2.383 0 002.375-2.39v-10.36h31.951a2.383 2.383 0 002.375-2.39v-7.97c0-1.32-1.063-2.39-2.375-2.39H29.007V63.75h18.366zM29.007 20.07h15.58c9.246 0 14.82 5.8 14.82 14.807 0 9.131-5.574 15.054-15.074 15.054H29.007V20.07z" fill="#074078"/></svg>