<svg width="126" height="100" fill="none" xmlns="http://www.w3.org/2000/svg"><path d="M99.225 68.75H26.854c-.866 0-1.575.703-1.575 1.562l-.02 9.375c0 .86.709 1.563 1.575 1.563h72.391c.866 0 1.575-.703 1.575-1.563v-9.375c0-.859-.709-1.562-1.575-1.562zm0 18.75h-72.43c-.867 0-1.575.703-1.575 1.562l-.02 9.375c0 .86.709 1.563 1.575 1.563h72.45c.866 0 1.575-.703 1.575-1.563v-9.375c0-.859-.709-1.562-1.575-1.562zm0-37.5H26.893c-.866 0-1.575.703-1.575 1.562l-.02 9.375c0 .86.71 1.563 1.575 1.563h72.352c.866 0 1.575-.703 1.575-1.563v-9.375c0-.859-.709-1.562-1.575-1.562zm20.967-27.148L66.622.722a9.545 9.545 0 00-7.264 0l-53.55 22.13C2.303 24.316 0 27.715 0 31.504v66.933C0 99.297.709 100 1.575 100h15.75c.866 0 1.575-.703 1.575-1.563V50c0-3.438 2.874-6.25 6.418-6.25h75.364c3.544 0 6.418 2.812 6.418 6.25v48.437c0 .86.709 1.563 1.575 1.563h15.75c.866 0 1.575-.703 1.575-1.563V31.504c0-3.79-2.303-7.188-5.808-8.652z" fill="orange"/></svg>